<?xml version="1.0" encoding="UTF-8" standalone="no"?>
<!DOCTYPE svg PUBLIC "-//W3C//DTD SVG 1.1//EN" "http://www.w3.org/Graphics/SVG/1.1/DTD/svg11.dtd">
<svg width="100%" height="100%" viewBox="0 0 188 259" version="1.1" xmlns="http://www.w3.org/2000/svg" xmlns:xlink="http://www.w3.org/1999/xlink" xml:space="preserve" xmlns:serif="http://www.serif.com/" style="fill-rule:evenodd;clip-rule:evenodd;stroke-linecap:round;stroke-linejoin:round;stroke-miterlimit:1.5;">
    <g transform="matrix(0.884444,0,0,0.884444,-562.541,1.80877)">
        <path d="M738.858,288.104L706.82,289.996C703.582,290.188 700.398,289.102 697.951,286.972L640.3,236.795C636.844,233.788 635.329,229.119 636.36,224.655C636.36,224.655 645.756,183.978 645.756,183.976C645.791,183.823 645.83,183.67 645.871,183.518C645.88,183.483 645.89,183.449 645.899,183.414C646.526,181.18 647.759,179.175 649.483,177.604L681.251,148.647C679.24,147.685 677.504,146.189 676.252,144.291C675.106,142.559 674.381,140.517 674.231,138.302C674.229,138.273 674.228,138.244 674.226,138.215L671.202,88.419L641.153,56.389C637.494,52.489 636.748,46.683 639.304,41.985C641.859,37.287 647.139,34.758 652.401,35.71L722.392,48.378C724.047,46.403 726.292,44.977 728.826,44.33L738.546,41.849L753.292,36.828L806.115,0.271C810.009,-2.424 815.099,-2.665 819.231,-0.349C823.362,1.967 825.813,6.435 825.545,11.164L823.066,55.021L846.842,94.731C848.024,96.705 848.593,98.877 848.603,101.024C848.616,103.216 848.049,105.336 847.003,107.191C846.124,108.754 844.895,110.144 843.349,111.231L820.061,127.647L800.448,223.966L817.312,242.216C820.136,245.272 821.238,249.54 820.247,253.581C819.257,257.622 816.305,260.896 812.388,262.299L742.307,287.399C741.736,287.604 741.151,287.766 740.555,287.885C739.994,287.997 739.427,288.07 738.858,288.104Z" style="fill:white;"/>
    </g>
    <g id="Fox" transform="matrix(0.884444,0,0,0.884444,-562.541,1.80877)">
        <g>
            <path d="M657.834,186.766L710.323,138.92" style="fill:none;stroke:black;stroke-width:7.91px;"/>
            <path d="M757.345,200.869L721.575,139.61" style="fill:none;stroke:black;stroke-width:7.91px;"/>
            <path d="M757.61,161.315L768.672,148.937" style="fill:none;stroke:black;stroke-width:7.91px;"/>
            <path d="M648.438,227.445L706.089,277.622L738.127,275.729L657.834,186.766L648.438,227.445Z" style="fill:none;stroke:black;stroke-width:7.91px;"/>
            <path d="M657.834,186.766L738.127,275.729L755.426,226.821L657.834,186.766Z" style="fill:none;stroke:black;stroke-width:7.91px;"/>
            <path d="M757.345,200.869L735.881,218.799L657.834,186.766L757.345,200.869Z" style="fill:none;stroke:black;stroke-width:7.91px;"/>
            <path d="M775.061,227.376L755.426,226.821L735.881,218.799L757.345,200.869L775.061,227.376Z" style="fill:none;stroke:black;stroke-width:7.91px;"/>
            <path d="M808.208,250.629L738.127,275.729L755.426,226.821L787.034,227.715L808.208,250.629Z" style="fill:none;stroke:black;stroke-width:7.91px;"/>
            <path d="M775.061,227.376L779.952,227.515L774.109,174.601" style="fill:none;stroke:black;stroke-width:7.91px;"/>
            <path d="M774.109,174.601L787.034,227.715" style="fill:none;stroke:black;stroke-width:7.91px;"/>
            <path d="M774.109,174.601L731.405,140.214L686.599,137.464L731.892,56.341L742.082,53.74L768.672,148.937" style="fill:none;stroke:black;stroke-width:7.91px;"/>
            <path d="M774.109,174.601L795.188,128.461L808.896,120.351L787.034,227.715" style="fill:none;stroke:black;stroke-width:7.91px;"/>
            <path d="M808.896,120.351L836.207,101.099L758.924,48.005L742.082,53.74" style="fill:none;stroke:black;stroke-width:7.91px;"/>
            <path d="M758.924,48.005L813.169,10.464L810.475,58.123L836.207,101.099" style="fill:none;stroke:black;stroke-width:7.91px;"/>
            <path d="M728.67,62.112L650.193,47.908L683.304,83.201L686.599,137.464" style="fill:none;stroke:black;stroke-width:7.91px;"/>
            <path d="M768.672,148.937L782.465,156.309" style="fill:none;stroke:black;stroke-width:7.91px;"/>
        </g>
    </g>
</svg>
